# xmcd CD database file
#
# Track frame offsets:
#	150
#	62637
#	113100
#	183522
#	226095
#
# Disc length: 3830 seconds
#
# Revision: 0
# Processed by: cddbd v1.5.2PL0 Copyright (c) Steve Scherf et al.
# Submitted via: CDex 1.51
#
DISCID=380ef405
DTITLE=Jamie Oehlers Double Drummer Group - You R Here [Session Two]
DYEAR=2006
DGENRE=Jazz
TTITLE0=Hat In The Cat
TTITLE1=Kinjit
TTITLE2=You R Here
TTITLE3=Departure
TTITLE4=Don't Look Back
EXTD=YEAR: 2006
EXTT0=
EXTT1=
EXTT2=
EXTT3=
EXTT4=
PLAYORDER=
